<svg width="301" height="58" viewBox="0 0 301 58" fill="none" xmlns="http://www.w3.org/2000/svg">
<path d="M159.74 20.3038L152.432 44.3158H148.472L142.82 26.2798L137.168 44.3158H133.172L125.9 20.3038H130.184L135.512 39.3118L141.128 20.3038H144.548L150.2 39.2758L155.456 20.3038H159.74Z" fill="#2C3E50"/>
<path d="M169.259 44.8558C166.379 44.8558 164.207 44.0398 162.743 42.4078C161.303 40.7758 160.583 38.3998 160.583 35.2798C160.583 28.9678 163.463 25.8118 169.223 25.8118C172.127 25.8118 174.311 26.6278 175.775 28.2598C177.239 29.8678 177.971 32.2078 177.971 35.2798C177.971 38.3518 177.215 40.7158 175.703 42.3718C174.191 44.0278 172.043 44.8558 169.259 44.8558ZM169.223 41.6518C172.535 41.6518 174.191 39.5278 174.191 35.2798C174.191 33.1678 173.795 31.5958 173.003 30.5638C172.211 29.5078 170.951 28.9798 169.223 28.9798C167.471 28.9798 166.211 29.5198 165.443 30.5998C164.699 31.6558 164.327 33.2158 164.327 35.2798C164.327 37.3438 164.711 38.9278 165.479 40.0318C166.271 41.1118 167.519 41.6518 169.223 41.6518Z" fill="#2C3E50"/>
<path d="M182.332 27.8998C183.004 27.4918 184.144 27.0478 185.752 26.5678C187.36 26.0878 188.956 25.8478 190.54 25.8478C191.5 25.8478 192.316 26.0038 192.988 26.3158V29.3398C192.316 29.2438 191.512 29.1958 190.576 29.1958C188.992 29.1958 187.504 29.3158 186.112 29.5558V44.3158H182.332V27.8998Z" fill="#2C3E50"/>
<path d="M211.459 18.6838V40.4998C211.459 41.4598 211.063 42.2758 210.271 42.9478C209.479 43.5958 208.483 44.0758 207.283 44.3878C206.083 44.6998 204.847 44.8558 203.575 44.8558C201.007 44.8558 198.895 44.1358 197.239 42.6958C195.583 41.2318 194.755 38.6878 194.755 35.0638C194.755 32.1598 195.463 29.8918 196.879 28.2598C198.295 26.6278 200.395 25.8118 203.179 25.8118C203.827 25.8118 204.571 25.8958 205.411 26.0638C206.275 26.2318 207.043 26.4838 207.715 26.8198V18.6838H211.459ZM207.715 30.0958C207.139 29.7598 206.491 29.5078 205.771 29.3398C205.075 29.1478 204.391 29.0518 203.719 29.0518C200.311 29.0518 198.607 31.0798 198.607 35.1358C198.607 37.1518 198.991 38.7358 199.759 39.8878C200.527 41.0158 201.871 41.5798 203.791 41.5798C204.895 41.5798 205.819 41.4478 206.563 41.1838C207.331 40.9198 207.715 40.5718 207.715 40.1398V30.0958Z" fill="#2C3E50"/>
<path d="M224.669 25.8118C227.285 25.8118 229.385 26.5798 230.969 28.1158C232.577 29.6518 233.381 32.1478 233.381 35.6038C233.381 38.4358 232.649 40.6798 231.185 42.3358C229.721 43.9918 227.669 44.8198 225.029 44.8198C224.381 44.8198 223.637 44.7358 222.797 44.5678C221.957 44.3998 221.201 44.1478 220.529 43.8118V51.5518H216.785V29.7358C216.785 28.3678 217.553 27.3718 219.089 26.7478C220.649 26.1238 222.509 25.8118 224.669 25.8118ZM224.345 41.6158C226.049 41.6158 227.333 41.0998 228.197 40.0678C229.085 39.0118 229.529 37.4998 229.529 35.5318C229.529 33.4918 229.157 31.9078 228.413 30.7798C227.693 29.6518 226.397 29.0878 224.525 29.0878C223.325 29.0878 222.353 29.2198 221.609 29.4838C220.889 29.7478 220.529 30.1078 220.529 30.5638V40.5718C221.705 41.2678 222.977 41.6158 224.345 41.6158Z" fill="#2C3E50"/>
<path d="M237.773 27.8998C238.445 27.4918 239.585 27.0478 241.193 26.5678C242.801 26.0878 244.397 25.8478 245.981 25.8478C246.941 25.8478 247.757 26.0038 248.429 26.3158V29.3398C247.757 29.2438 246.953 29.1958 246.017 29.1958C244.433 29.1958 242.945 29.3158 241.553 29.5558V44.3158H237.773V27.8998Z" fill="#2C3E50"/>
<path d="M258.585 25.8118C261.393 25.8118 263.445 26.7238 264.741 28.5478C266.061 30.3478 266.709 32.8798 266.685 36.1438H254.013C254.133 37.9198 254.649 39.2758 255.561 40.2118C256.497 41.1238 257.817 41.5798 259.521 41.5798C260.625 41.5798 261.681 41.4478 262.689 41.1838C263.697 40.8958 264.585 40.5358 265.353 40.1038V43.6318C263.481 44.4478 261.333 44.8558 258.909 44.8558C256.197 44.8558 254.061 44.0398 252.501 42.4078C250.965 40.7518 250.197 38.4118 250.197 35.3878C250.197 32.2918 250.929 29.9278 252.393 28.2958C253.857 26.6398 255.921 25.8118 258.585 25.8118ZM258.477 28.9078C257.205 28.9078 256.209 29.2438 255.489 29.9158C254.769 30.5878 254.301 31.7278 254.085 33.3358H262.833C262.665 31.7998 262.233 30.6838 261.537 29.9878C260.841 29.2678 259.821 28.9078 258.477 28.9078Z" fill="#2C3E50"/>
<path d="M276.251 44.8558C275.051 44.8558 274.007 44.7358 273.119 44.4958C272.255 44.2558 271.319 43.8958 270.311 43.4158V39.8518C271.391 40.5238 272.375 41.0278 273.263 41.3638C274.151 41.6758 275.147 41.8318 276.251 41.8318C277.283 41.8318 278.087 41.6278 278.663 41.2198C279.263 40.7878 279.563 40.2358 279.563 39.5638C279.563 38.9158 279.323 38.4358 278.843 38.1238C278.363 37.8118 277.619 37.4758 276.611 37.1158L275.783 36.8278C274.103 36.4198 272.759 35.8318 271.751 35.0638C270.767 34.2958 270.275 33.0958 270.275 31.4638C270.275 30.1918 270.611 29.1358 271.283 28.2958C271.955 27.4558 272.795 26.8438 273.803 26.4598C274.835 26.0758 275.915 25.8838 277.043 25.8838C278.195 25.9078 279.167 26.0518 279.959 26.3158C280.751 26.5558 281.615 26.9158 282.551 27.3958V30.6358C281.303 29.9878 280.355 29.5438 279.707 29.3038C279.083 29.0638 278.327 28.9438 277.439 28.9438C276.455 28.9438 275.663 29.1238 275.063 29.4838C274.463 29.8438 274.163 30.3478 274.163 30.9958C274.163 31.7638 274.463 32.3278 275.063 32.6878C275.663 33.0238 276.599 33.3718 277.871 33.7318C279.071 34.0678 280.019 34.3918 280.715 34.7038C281.435 35.0158 282.059 35.5318 282.587 36.2518C283.139 36.9478 283.415 37.9078 283.415 39.1318C283.391 41.0518 282.683 42.4918 281.291 43.4518C279.923 44.3878 278.243 44.8558 276.251 44.8558Z" fill="#2C3E50"/>
<path d="M293.056 44.8558C291.856 44.8558 290.812 44.7358 289.924 44.4958C289.06 44.2558 288.124 43.8958 287.116 43.4158V39.8518C288.196 40.5238 289.18 41.0278 290.068 41.3638C290.956 41.6758 291.952 41.8318 293.056 41.8318C294.088 41.8318 294.892 41.6278 295.468 41.2198C296.068 40.7878 296.368 40.2358 296.368 39.5638C296.368 38.9158 296.128 38.4358 295.648 38.1238C295.168 37.8118 294.424 37.4758 293.416 37.1158L292.588 36.8278C290.908 36.4198 289.564 35.8318 288.556 35.0638C287.572 34.2958 287.08 33.0958 287.08 31.4638C287.08 30.1918 287.416 29.1358 288.088 28.2958C288.76 27.4558 289.6 26.8438 290.608 26.4598C291.64 26.0758 292.72 25.8838 293.848 25.8838C295 25.9078 295.972 26.0518 296.764 26.3158C297.556 26.5558 298.42 26.9158 299.356 27.3958V30.6358C298.108 29.9878 297.16 29.5438 296.512 29.3038C295.888 29.0638 295.132 28.9438 294.244 28.9438C293.26 28.9438 292.468 29.1238 291.868 29.4838C291.268 29.8438 290.968 30.3478 290.968 30.9958C290.968 31.7638 291.268 32.3278 291.868 32.6878C292.468 33.0238 293.404 33.3718 294.676 33.7318C295.876 34.0678 296.824 34.3918 297.52 34.7038C298.24 35.0158 298.864 35.5318 299.392 36.2518C299.944 36.9478 300.22 37.9078 300.22 39.1318C300.196 41.0518 299.488 42.4918 298.096 43.4518C296.728 44.3878 295.048 44.8558 293.056 44.8558Z" fill="#2C3E50"/>
<path d="M29.822 0C13.3838 0 0 12.9177 0 28.8093C0 44.6893 13.3838 57.6186 29.822 57.6186C46.2602 57.6186 59.6441 44.6893 59.6441 28.8093C59.6441 12.9177 46.2602 0 29.822 0ZM3.00625 28.8093C3.00625 25.0571 3.83598 21.4908 5.32708 18.273L18.1217 52.1239C9.17508 47.9187 3.00625 39.0552 3.00625 28.8093ZM29.822 54.7145C27.1886 54.7145 24.6513 54.3427 22.2463 53.6573L30.291 31.0746L38.5281 52.8906C38.5883 53.0184 38.6484 53.1346 38.7205 53.2508C35.9428 54.1917 32.9485 54.7145 29.822 54.7145ZM33.5137 16.6699C35.1251 16.5886 36.5801 16.426 36.5801 16.426C38.0231 16.2633 37.8547 14.2072 36.4117 14.2885C36.4117 14.2885 32.0707 14.6138 29.2689 14.6138C26.6354 14.6138 22.2102 14.2885 22.2102 14.2885C20.7672 14.2072 20.5988 16.3446 22.0418 16.426C22.0418 16.426 23.4127 16.5886 24.8557 16.6699L29.0284 27.729L23.1602 44.7241L13.3959 16.6699C15.0072 16.5886 16.4622 16.426 16.4622 16.426C17.9052 16.2633 17.7369 14.2072 16.2939 14.2885C16.2939 14.2885 11.9529 14.6138 9.15103 14.6138C8.64598 14.6138 8.05676 14.6021 7.41943 14.5789C12.2174 7.55083 20.4545 2.90416 29.822 2.90416C36.7965 2.90416 43.1578 5.48306 47.9317 9.69991C47.8114 9.68829 47.7032 9.67668 47.583 9.67668C44.9495 9.67668 43.0856 11.8955 43.0856 14.2769C43.0856 16.4143 44.3603 18.2149 45.7191 20.3524C46.7412 22.0717 47.9317 24.2904 47.9317 27.4966C47.9317 29.7154 47.0539 32.2827 45.8874 35.8722L43.2179 44.5034L33.5137 16.6699ZM43.3021 51.1946L51.4911 28.3214C53.0183 24.6273 53.5354 21.6767 53.5354 19.0397C53.5354 18.0871 53.4752 17.2043 53.355 16.3795C55.4473 20.0736 56.6378 24.302 56.6378 28.8093C56.6378 38.3698 51.2747 46.7106 43.3021 51.1946Z" fill="#2C3E50"/>
</svg>
