<svg width="317" height="53" viewBox="0 0 317 53" fill="none" xmlns="http://www.w3.org/2000/svg">
<path d="M50.2886 17.5847C49.6393 17.3756 48.9899 17.1781 48.3405 16.9922C48.4488 16.5624 48.545 16.1326 48.6412 15.7028C50.1203 8.77926 49.1462 3.21488 45.8634 1.37945C42.7008 -0.374669 37.5421 1.44915 32.3232 5.84024C31.8062 6.27006 31.3011 6.72311 30.8201 7.17616C30.4954 6.87413 30.1587 6.57209 29.822 6.28168C24.3506 1.58855 18.8672 -0.386285 15.5844 1.46076C12.4339 3.2265 11.4959 8.46561 12.8187 15.0174C12.9509 15.6679 13.0952 16.3069 13.2636 16.9574C12.494 17.1665 11.7364 17.3988 11.0269 17.6428C4.60558 19.7918 0 23.1839 0 26.6921C0 30.3165 4.90621 33.9526 11.5801 36.1597C12.1212 36.334 12.6623 36.5082 13.2155 36.6592C13.0351 37.3562 12.8788 38.0416 12.7345 38.7502C11.4719 45.1975 12.4579 50.3088 15.6085 52.0629C18.8552 53.8751 24.3146 52.0165 29.6296 47.5208C30.0505 47.1607 30.4714 46.789 30.8923 46.394C31.4214 46.8935 31.9745 47.3698 32.5277 47.8345C37.6744 52.1094 42.7609 53.8403 45.8995 52.0862C49.1462 50.274 50.2044 44.7793 48.8336 38.0881C48.7253 37.577 48.6051 37.0542 48.4728 36.5198C48.8576 36.4153 49.2304 36.2991 49.6032 36.1829C56.5416 33.9642 61.5681 30.3746 61.5681 26.6921C61.5681 23.1723 56.8302 19.757 50.2886 17.5847ZM34.0188 7.72214C38.4921 3.95834 42.6647 2.48303 44.5647 3.54014C46.5969 4.66696 47.3785 9.22069 46.1039 15.2033C46.0197 15.5982 45.9355 15.9816 45.8273 16.3649C43.1578 15.7841 40.4521 15.3659 37.7345 15.1336C36.1712 12.9729 34.4637 10.9051 32.6118 8.96512C33.0808 8.53531 33.5378 8.12873 34.0188 7.72214ZM18.3862 29.6892C18.9394 30.7115 19.5046 31.7222 20.1058 32.7212C20.7191 33.7318 21.3444 34.7425 22.0058 35.7299C20.1299 35.5324 18.266 35.242 16.4262 34.8587C16.9553 33.1859 17.6166 31.455 18.3862 29.6892ZM18.3862 23.8112C17.6287 22.0803 16.9913 20.3843 16.4622 18.7463C18.1938 18.3746 20.0337 18.0726 21.9456 17.8402C21.3083 18.8044 20.683 19.7918 20.0938 20.7909C19.5046 21.7783 18.9274 22.7889 18.3862 23.8112ZM19.7571 26.7502C20.5507 25.1471 21.4165 23.5789 22.3304 22.0339C23.2443 20.4888 24.2304 18.9903 25.2646 17.515C27.0683 17.3872 28.9081 17.3175 30.784 17.3175C32.6599 17.3175 34.5118 17.3872 36.3035 17.515C37.3256 18.9787 38.2997 20.4772 39.2256 22.0106C40.1515 23.544 41.0173 25.1123 41.835 26.7038C41.0293 28.3069 40.1635 29.8867 39.2376 31.4434C38.3237 32.9884 37.3497 34.4869 36.3276 35.9739C34.5358 36.1016 32.672 36.1597 30.784 36.1597C28.8961 36.1597 27.0683 36.1016 25.3006 35.9971C24.2544 34.5218 23.2684 33.0116 22.3425 31.4666C21.4165 29.9216 20.5628 28.3533 19.7571 26.7502ZM41.4743 32.698C42.0875 31.6757 42.6647 30.6418 43.2299 29.5963C43.9995 31.2807 44.6729 32.9884 45.2621 34.7425C43.3983 35.1491 41.5103 35.4627 39.6104 35.6718C40.2597 34.696 40.873 33.697 41.4743 32.698ZM43.2059 23.8112C42.6407 22.7889 42.0635 21.7667 41.4622 20.7676C40.873 19.7802 40.2597 18.8044 39.6224 17.8402C41.5584 18.0726 43.4103 18.3862 45.1419 18.7696C44.5887 20.4888 43.9394 22.1616 43.2059 23.8112ZM30.8081 10.7425C32.0707 12.0668 33.2612 13.4608 34.3675 14.9012C31.9865 14.7967 29.5936 14.7967 27.2126 14.9012C28.3911 13.4027 29.6056 12.0087 30.8081 10.7425ZM16.8591 3.62146C18.8793 2.48303 23.3646 4.10936 28.0904 8.15196C28.3911 8.40752 28.6917 8.68632 29.0043 8.96512C27.1405 10.9051 25.4209 12.9729 23.8456 15.1336C21.1279 15.3659 18.4343 15.7725 15.7648 16.3417C15.6085 15.7493 15.4762 15.1452 15.3439 14.5411C14.2136 8.91866 14.9591 4.67858 16.8591 3.62146ZM13.9129 34.243C13.4079 34.1036 12.9149 33.9526 12.4218 33.7899C9.86051 33.0116 6.95046 31.7802 4.84608 30.1655C3.63155 29.3524 2.81385 28.0978 2.58538 26.6921C2.58538 24.5663 6.38528 21.848 11.8687 20.0009C12.5541 19.7686 13.2516 19.5595 13.949 19.362C14.7667 21.8828 15.7528 24.3572 16.8951 26.7502C15.7407 29.1781 14.7427 31.6873 13.9129 34.243ZM27.9341 45.6273C25.95 47.3814 23.6532 48.7754 21.152 49.728C19.8172 50.3437 18.278 50.4017 16.9072 49.879C14.9952 48.8103 14.2015 44.7096 15.2838 39.1917C15.4161 38.5411 15.5604 37.8906 15.7287 37.2517C18.4223 37.8093 21.14 38.1926 23.8937 38.3901C25.481 40.5624 27.2246 42.6418 29.0885 44.5934C28.7037 44.9535 28.3189 45.302 27.9341 45.6273ZM30.8802 42.8044C29.6537 41.5266 28.4271 40.1094 27.2367 38.5876C28.3911 38.6341 29.5815 38.6573 30.784 38.6573C32.0226 38.6573 33.2371 38.6341 34.4396 38.576C33.3333 40.0513 32.1429 41.4569 30.8802 42.8044ZM46.5969 46.2894C46.4887 47.7067 45.7672 49.031 44.6128 49.9255C42.7008 50.9942 38.6243 49.6002 34.2232 45.9526C33.7181 45.5344 33.2131 45.0813 32.696 44.6166C34.5358 42.6534 36.2314 40.574 37.7706 38.3901C40.5243 38.1694 43.266 37.7628 45.9716 37.1704C46.0919 37.6466 46.2001 38.1229 46.2963 38.5876C46.8855 41.0968 46.9817 43.7105 46.5969 46.2894ZM48.7855 33.8015C48.4488 33.9061 48.1121 34.0106 47.7633 34.1036C46.9216 31.5711 45.8874 29.0968 44.697 26.6921C45.8514 24.3223 46.8254 21.8828 47.6431 19.3853C48.2684 19.5595 48.8697 19.7454 49.4468 19.9312C55.0505 21.7899 58.9827 24.5547 58.9827 26.6689C58.9827 28.9458 54.786 31.8848 48.7855 33.8015ZM30.784 21.4182C33.8264 21.4182 36.2915 23.7996 36.2915 26.7386C36.2915 29.6776 33.8264 32.059 30.784 32.059C27.7417 32.059 25.2766 29.6776 25.2766 26.7386C25.2766 23.7996 27.7417 21.4182 30.784 21.4182Z" fill="white"/>
<path d="M110.496 40.3157L104.88 31.2437H99.804V40.3157H95.844V16.3037H106.5C109.02 16.3037 110.94 16.9157 112.26 18.1397C113.604 19.3397 114.276 21.1397 114.276 23.5397C114.276 25.2677 113.796 26.7797 112.836 28.0757C111.9 29.3717 110.628 30.1997 109.02 30.5597L115.428 40.3157H110.496ZM99.804 28.0037H105.384C106.968 28.0037 108.144 27.6557 108.912 26.9597C109.704 26.2637 110.1 25.2077 110.1 23.7917C110.1 22.4237 109.776 21.3917 109.128 20.6957C108.504 19.9997 107.472 19.6517 106.032 19.6517H99.804V28.0037Z" fill="white"/>
<path d="M127.057 21.8117C129.865 21.8117 131.917 22.7237 133.213 24.5477C134.533 26.3477 135.181 28.8797 135.157 32.1437H122.485C122.605 33.9197 123.121 35.2757 124.033 36.2117C124.969 37.1237 126.289 37.5797 127.993 37.5797C129.097 37.5797 130.153 37.4477 131.161 37.1837C132.169 36.8957 133.057 36.5357 133.825 36.1037V39.6317C131.953 40.4477 129.805 40.8557 127.381 40.8557C124.669 40.8557 122.533 40.0397 120.973 38.4077C119.437 36.7517 118.669 34.4117 118.669 31.3877C118.669 28.2917 119.401 25.9277 120.865 24.2957C122.329 22.6397 124.393 21.8117 127.057 21.8117ZM126.949 24.9077C125.677 24.9077 124.681 25.2437 123.961 25.9157C123.241 26.5877 122.773 27.7277 122.557 29.3357H131.305C131.137 27.7997 130.705 26.6837 130.009 25.9877C129.313 25.2677 128.293 24.9077 126.949 24.9077Z" fill="white"/>
<path d="M147.316 21.8477C149.284 21.8477 150.952 22.3277 152.32 23.2877C153.712 24.2237 154.396 25.7477 154.372 27.8597V36.4997C154.372 38.1317 153.652 39.2717 152.212 39.9197C150.772 40.5437 148.72 40.8557 146.056 40.8557C143.92 40.8557 142.156 40.4117 140.764 39.5237C139.372 38.6357 138.676 37.1477 138.676 35.0597C138.676 33.0917 139.24 31.6157 140.368 30.6317C141.52 29.6477 143.14 29.1557 145.228 29.1557C147.388 29.1557 149.188 29.5877 150.628 30.4517V28.7237C150.628 26.2757 149.152 25.0517 146.2 25.0517C145.144 25.0517 144.088 25.2197 143.032 25.5557C141.976 25.8677 141.1 26.3117 140.404 26.8877V23.3597C141.076 22.9277 142.048 22.5677 143.32 22.2797C144.616 21.9917 145.948 21.8477 147.316 21.8477ZM146.488 37.9037C148 37.9037 149.068 37.7957 149.692 37.5797C150.316 37.3637 150.628 36.9317 150.628 36.2837V32.7917C149.404 32.2637 148.06 31.9997 146.596 31.9997C145.228 31.9997 144.184 32.2397 143.464 32.7197C142.768 33.1997 142.42 33.9197 142.42 34.8797C142.42 35.8877 142.816 36.6437 143.608 37.1477C144.424 37.6517 145.384 37.9037 146.488 37.9037Z" fill="white"/>
<path d="M167.675 40.6757C165.131 40.6757 163.007 39.9437 161.303 38.4797C159.623 37.0157 158.783 34.6517 158.783 31.3877C158.783 28.0277 159.611 25.6037 161.267 24.1157C162.947 22.6037 165.071 21.8477 167.639 21.8477C169.583 21.8477 171.431 22.2077 173.183 22.9277V26.3117C171.359 25.5437 169.691 25.1597 168.179 25.1597C166.283 25.1597 164.867 25.6397 163.931 26.5997C162.995 27.5357 162.527 29.0357 162.527 31.0997C162.527 33.2597 162.983 34.8437 163.895 35.8517C164.807 36.8357 166.271 37.3277 168.287 37.3277C169.919 37.3277 171.563 36.9317 173.219 36.1397V39.5237C171.491 40.2917 169.643 40.6757 167.675 40.6757Z" fill="white"/>
<path d="M184.022 40.7837C182.366 40.7837 181.07 40.3397 180.134 39.4517C179.198 38.5637 178.73 37.3037 178.73 35.6717V25.3757H175.814V22.2437H178.73V17.2037H182.618V22.2437H187.01V25.3757H182.618V34.9157C182.618 35.8037 182.774 36.4517 183.086 36.8597C183.398 37.2437 183.95 37.4357 184.742 37.4357C185.126 37.4357 185.522 37.3877 185.93 37.2917C186.362 37.1717 186.722 37.0277 187.01 36.8597V40.2077C186.17 40.5917 185.174 40.7837 184.022 40.7837Z" fill="white"/>
<path d="M205.765 40.3157H201.805V16.3037H211.309C214.069 16.3037 216.193 16.9517 217.681 18.2477C219.169 19.5197 219.913 21.4037 219.913 23.8997C219.913 26.3957 219.157 28.3277 217.645 29.6957C216.157 31.0397 214.045 31.7117 211.309 31.7117H205.765V40.3157ZM210.805 28.3277C212.701 28.3277 213.997 27.9437 214.693 27.1757C215.413 26.3837 215.773 25.3397 215.773 24.0437C215.773 22.6997 215.413 21.6317 214.693 20.8397C213.997 20.0477 212.701 19.6517 210.805 19.6517H205.765V28.3277H210.805Z" fill="white"/>
<path d="M224.477 23.8997C225.149 23.4917 226.288 23.0477 227.896 22.5677C229.504 22.0877 231.1 21.8477 232.684 21.8477C233.644 21.8477 234.461 22.0037 235.133 22.3157V25.3397C234.461 25.2437 233.657 25.1957 232.721 25.1957C231.137 25.1957 229.649 25.3157 228.257 25.5557V40.3157H224.477V23.8997Z" fill="white"/>
<path d="M245.576 40.8557C242.696 40.8557 240.524 40.0397 239.06 38.4077C237.62 36.7757 236.9 34.3997 236.9 31.2797C236.9 24.9677 239.78 21.8117 245.54 21.8117C248.444 21.8117 250.628 22.6277 252.092 24.2597C253.556 25.8677 254.288 28.2077 254.288 31.2797C254.288 34.3517 253.532 36.7157 252.02 38.3717C250.508 40.0277 248.36 40.8557 245.576 40.8557ZM245.54 37.6517C248.852 37.6517 250.508 35.5277 250.508 31.2797C250.508 29.1677 250.112 27.5957 249.32 26.5637C248.528 25.5077 247.268 24.9797 245.54 24.9797C243.788 24.9797 242.528 25.5197 241.76 26.5997C241.016 27.6557 240.644 29.2157 240.644 31.2797C240.644 33.3437 241.028 34.9277 241.796 36.0317C242.588 37.1117 243.836 37.6517 245.54 37.6517Z" fill="white"/>
<path d="M259.512 15.8357H263.508V19.2557H259.512V15.8357ZM256.308 44.0237C257.556 44.0477 258.42 43.8077 258.9 43.3037C259.38 42.7997 259.62 41.9957 259.62 40.8917V22.2437H263.4L263.436 40.9637C263.436 45.1637 261.06 47.2637 256.308 47.2637V44.0237Z" fill="white"/>
<path d="M276.296 21.8117C279.104 21.8117 281.156 22.7237 282.452 24.5477C283.772 26.3477 284.42 28.8797 284.396 32.1437H271.724C271.844 33.9197 272.36 35.2757 273.272 36.2117C274.208 37.1237 275.528 37.5797 277.232 37.5797C278.336 37.5797 279.392 37.4477 280.4 37.1837C281.408 36.8957 282.296 36.5357 283.064 36.1037V39.6317C281.192 40.4477 279.044 40.8557 276.62 40.8557C273.908 40.8557 271.772 40.0397 270.212 38.4077C268.676 36.7517 267.908 34.4117 267.908 31.3877C267.908 28.2917 268.64 25.9277 270.104 24.2957C271.568 22.6397 273.632 21.8117 276.296 21.8117ZM276.188 24.9077C274.916 24.9077 273.92 25.2437 273.2 25.9157C272.48 26.5877 272.012 27.7277 271.796 29.3357H280.544C280.376 27.7997 279.944 26.6837 279.248 25.9877C278.552 25.2677 277.532 24.9077 276.188 24.9077Z" fill="white"/>
<path d="M296.698 40.6757C294.154 40.6757 292.03 39.9437 290.326 38.4797C288.646 37.0157 287.806 34.6517 287.806 31.3877C287.806 28.0277 288.634 25.6037 290.29 24.1157C291.97 22.6037 294.094 21.8477 296.662 21.8477C298.606 21.8477 300.454 22.2077 302.206 22.9277V26.3117C300.382 25.5437 298.714 25.1597 297.202 25.1597C295.306 25.1597 293.89 25.6397 292.954 26.5997C292.018 27.5357 291.55 29.0357 291.55 31.0997C291.55 33.2597 292.006 34.8437 292.918 35.8517C293.83 36.8357 295.294 37.3277 297.31 37.3277C298.942 37.3277 300.586 36.9317 302.242 36.1397V39.5237C300.514 40.2917 298.666 40.6757 296.698 40.6757Z" fill="white"/>
<path d="M313.046 40.7837C311.39 40.7837 310.094 40.3397 309.158 39.4517C308.222 38.5637 307.754 37.3037 307.754 35.6717V25.3757H304.837V22.2437H307.754V17.2037H311.642V22.2437H316.034V25.3757H311.642V34.9157C311.642 35.8037 311.797 36.4517 312.109 36.8597C312.421 37.2437 312.974 37.4357 313.766 37.4357C314.15 37.4357 314.545 37.3877 314.953 37.2917C315.385 37.1717 315.746 37.0277 316.034 36.8597V40.2077C315.194 40.5917 314.198 40.7837 313.046 40.7837Z" fill="white"/>
</svg>
