<svg width="347" height="53" viewBox="0 0 347 53" fill="none" xmlns="http://www.w3.org/2000/svg">
<path d="M25.1761 27.46H36.4809L30.8285 16.8192L25.1761 27.46ZM30.8285 0.0330811L0 8.67588L4.71774 40.703L30.8285 52.0757L56.9393 40.703L61.6571 8.67588L30.8285 0.0330811ZM50.1446 39.7388H42.9344L39.0475 32.1415H22.6392L18.7523 39.7388H11.5273L30.8285 5.78333L50.1446 39.7388Z" fill="white"/>
<path d="M105.74 32.7998H95.912L93.572 39.3158H89.612L98.972 15.3037H103.184L112.292 39.3158H108.116L105.74 32.7998ZM104.552 29.5597L100.808 19.2638L97.1 29.5597H104.552Z" fill="white"/>
<path d="M115.57 22.7197C116.65 22.1677 117.958 21.7238 119.494 21.3878C121.054 21.0278 122.542 20.8477 123.958 20.8477C126.478 20.8477 128.338 21.3758 129.538 22.4318C130.738 23.4878 131.338 25.1318 131.338 27.3638V39.3158H127.558V27.8678C127.558 25.3478 126.13 24.0878 123.274 24.0878C121.906 24.0878 120.598 24.3157 119.35 24.7717V39.3158H115.57V22.7197Z" fill="white"/>
<path d="M145.232 20.8477C147.272 20.8477 148.952 21.2437 150.272 22.0357C151.616 22.8277 152.288 23.9917 152.288 25.5278V39.8558C152.288 41.9198 151.616 43.5998 150.272 44.8958C148.928 46.1918 146.792 46.8398 143.864 46.8398C141.728 46.8398 139.784 46.5158 138.032 45.8678V42.4118C140.024 43.1558 141.872 43.5278 143.576 43.5278C145.496 43.5278 146.804 43.1797 147.5 42.4837C148.196 41.8117 148.544 40.9118 148.544 39.7838V38.5597C147.848 38.9437 147.08 39.2558 146.24 39.4958C145.424 39.7358 144.62 39.8558 143.828 39.8558C141.188 39.8078 139.172 39.0038 137.78 37.4438C136.412 35.8838 135.728 33.6638 135.728 30.7838C135.728 27.0398 136.592 24.4478 138.32 23.0078C140.048 21.5678 142.352 20.8477 145.232 20.8477ZM139.58 30.6758C139.58 32.5478 139.988 34.0358 140.804 35.1398C141.62 36.2198 142.832 36.7598 144.44 36.7598C146 36.7598 147.368 36.4118 148.544 35.7158V26.2478C148.544 25.4078 148.22 24.8318 147.572 24.5198C146.948 24.2078 146.096 24.0518 145.016 24.0518C142.976 24.0518 141.56 24.6398 140.768 25.8158C139.976 26.9918 139.58 28.6118 139.58 30.6758Z" fill="white"/>
<path d="M165.504 39.8558C162.984 39.8558 161.016 39.2438 159.6 38.0198C158.208 36.7718 157.512 34.9598 157.512 32.5838V21.2437H161.292V32.0438C161.292 33.5798 161.628 34.7197 162.3 35.4637C162.996 36.1837 164.064 36.5438 165.504 36.5438C166.944 36.5438 168 36.1837 168.672 35.4637C169.368 34.7197 169.716 33.5798 169.716 32.0438V21.2437H173.352V32.5838C173.352 34.9598 172.668 36.7718 171.3 38.0198C169.932 39.2438 168 39.8558 165.504 39.8558Z" fill="white"/>
<path d="M178.676 39.3158V14.4037H182.42V39.3158H178.676Z" fill="white"/>
<path d="M195.558 20.8477C197.526 20.8477 199.194 21.3278 200.562 22.2878C201.954 23.2238 202.638 24.7478 202.614 26.8598V35.4998C202.614 37.1318 201.894 38.2718 200.454 38.9198C199.014 39.5438 196.962 39.8558 194.298 39.8558C192.162 39.8558 190.398 39.4118 189.006 38.5238C187.614 37.6358 186.918 36.1477 186.918 34.0597C186.918 32.0917 187.482 30.6158 188.61 29.6318C189.762 28.6478 191.382 28.1558 193.47 28.1558C195.63 28.1558 197.43 28.5878 198.87 29.4517V27.7237C198.87 25.2757 197.394 24.0518 194.442 24.0518C193.386 24.0518 192.33 24.2197 191.274 24.5557C190.218 24.8678 189.342 25.3118 188.646 25.8878V22.3598C189.318 21.9278 190.29 21.5677 191.562 21.2797C192.858 20.9917 194.19 20.8477 195.558 20.8477ZM194.73 36.9038C196.242 36.9038 197.31 36.7958 197.934 36.5798C198.558 36.3638 198.87 35.9318 198.87 35.2838V31.7917C197.646 31.2637 196.302 30.9998 194.838 30.9998C193.47 30.9998 192.426 31.2398 191.706 31.7198C191.01 32.1998 190.662 32.9197 190.662 33.8797C190.662 34.8877 191.058 35.6438 191.85 36.1478C192.666 36.6518 193.626 36.9038 194.73 36.9038Z" fill="white"/>
<path d="M207.961 22.8997C208.633 22.4918 209.773 22.0477 211.381 21.5677C212.989 21.0877 214.585 20.8477 216.169 20.8477C217.129 20.8477 217.945 21.0037 218.617 21.3158V24.3398C217.945 24.2438 217.141 24.1958 216.205 24.1958C214.621 24.1958 213.133 24.3158 211.741 24.5557V39.3158H207.961V22.8997Z" fill="white"/>
<path d="M236.71 39.3158H232.75V15.3037H242.254C245.014 15.3037 247.138 15.9517 248.626 17.2477C250.114 18.5198 250.858 20.4038 250.858 22.8997C250.858 25.3957 250.102 27.3278 248.59 28.6958C247.102 30.0398 244.99 30.7118 242.254 30.7118H236.71V39.3158ZM241.75 27.3278C243.646 27.3278 244.942 26.9438 245.638 26.1758C246.358 25.3838 246.718 24.3398 246.718 23.0438C246.718 21.6998 246.358 20.6318 245.638 19.8398C244.942 19.0478 243.646 18.6518 241.75 18.6518H236.71V27.3278H241.75Z" fill="white"/>
<path d="M255.422 22.8997C256.094 22.4918 257.234 22.0477 258.842 21.5677C260.45 21.0877 262.046 20.8477 263.63 20.8477C264.59 20.8477 265.406 21.0037 266.078 21.3158V24.3398C265.406 24.2438 264.602 24.1958 263.666 24.1958C262.082 24.1958 260.594 24.3158 259.202 24.5557V39.3158H255.422V22.8997Z" fill="white"/>
<path d="M276.521 39.8558C273.641 39.8558 271.469 39.0397 270.005 37.4077C268.565 35.7757 267.845 33.3998 267.845 30.2798C267.845 23.9678 270.725 20.8118 276.485 20.8118C279.389 20.8118 281.573 21.6278 283.037 23.2598C284.501 24.8678 285.233 27.2078 285.233 30.2798C285.233 33.3518 284.477 35.7157 282.965 37.3717C281.453 39.0277 279.305 39.8558 276.521 39.8558ZM276.485 36.6518C279.797 36.6518 281.453 34.5278 281.453 30.2798C281.453 28.1678 281.057 26.5957 280.265 25.5637C279.473 24.5077 278.213 23.9797 276.485 23.9797C274.733 23.9797 273.473 24.5198 272.705 25.5998C271.961 26.6558 271.589 28.2158 271.589 30.2798C271.589 32.3438 271.973 33.9277 272.741 35.0317C273.533 36.1117 274.781 36.6518 276.485 36.6518Z" fill="white"/>
<path d="M290.458 14.8358H294.454V18.2557H290.458V14.8358ZM287.254 43.0238C288.502 43.0478 289.366 42.8077 289.846 42.3037C290.326 41.7997 290.566 40.9958 290.566 39.8918V21.2437H294.346L294.382 39.9638C294.382 44.1638 292.006 46.2638 287.254 46.2638V43.0238Z" fill="white"/>
<path d="M307.241 20.8118C310.049 20.8118 312.101 21.7238 313.397 23.5478C314.717 25.3478 315.365 27.8798 315.341 31.1438H302.669C302.789 32.9198 303.305 34.2757 304.217 35.2118C305.153 36.1238 306.473 36.5798 308.177 36.5798C309.281 36.5798 310.337 36.4478 311.345 36.1838C312.353 35.8958 313.241 35.5358 314.009 35.1038V38.6318C312.137 39.4478 309.989 39.8558 307.565 39.8558C304.853 39.8558 302.717 39.0397 301.157 37.4077C299.621 35.7517 298.853 33.4118 298.853 30.3878C298.853 27.2918 299.585 24.9278 301.049 23.2957C302.513 21.6398 304.577 20.8118 307.241 20.8118ZM307.133 23.9077C305.861 23.9077 304.865 24.2437 304.145 24.9158C303.425 25.5878 302.957 26.7278 302.741 28.3358H311.489C311.321 26.7998 310.889 25.6837 310.193 24.9877C309.497 24.2677 308.477 23.9077 307.133 23.9077Z" fill="white"/>
<path d="M327.643 39.6758C325.099 39.6758 322.975 38.9438 321.271 37.4798C319.591 36.0158 318.751 33.6518 318.751 30.3878C318.751 27.0278 319.579 24.6037 321.235 23.1157C322.915 21.6037 325.039 20.8477 327.607 20.8477C329.551 20.8477 331.399 21.2077 333.151 21.9277V25.3118C331.327 24.5438 329.659 24.1597 328.147 24.1597C326.251 24.1597 324.835 24.6398 323.899 25.5998C322.963 26.5358 322.495 28.0358 322.495 30.0998C322.495 32.2598 322.951 33.8437 323.863 34.8517C324.775 35.8357 326.239 36.3278 328.255 36.3278C329.887 36.3278 331.531 35.9318 333.187 35.1398V38.5238C331.459 39.2918 329.611 39.6758 327.643 39.6758Z" fill="white"/>
<path d="M343.991 39.7838C342.335 39.7838 341.039 39.3398 340.103 38.4518C339.167 37.5638 338.699 36.3037 338.699 34.6717V24.3757H335.783V21.2437H338.699V16.2038H342.587V21.2437H346.979V24.3757H342.587V33.9158C342.587 34.8038 342.743 35.4518 343.055 35.8598C343.367 36.2438 343.919 36.4357 344.711 36.4357C345.095 36.4357 345.491 36.3878 345.899 36.2918C346.331 36.1718 346.691 36.0278 346.979 35.8598V39.2078C346.139 39.5918 345.143 39.7838 343.991 39.7838Z" fill="white"/>
</svg>
