<svg width="285" height="68" viewBox="0 0 285 68" fill="none" xmlns="http://www.w3.org/2000/svg">
<path d="M155.284 47.7478C151.588 47.7478 148.768 46.7158 146.824 44.6518C144.88 42.5878 143.908 39.4678 143.908 35.2918C143.908 31.1398 144.88 28.0438 146.824 26.0038C148.768 23.9398 151.576 22.9078 155.248 22.9078C158.104 22.9078 160.78 23.4598 163.276 24.5638V28.3798C161.812 27.6838 160.492 27.1558 159.316 26.7958C158.14 26.4118 156.952 26.2198 155.752 26.2198C153.088 26.2198 151.108 26.9398 149.812 28.3798C148.54 29.8198 147.904 32.1238 147.904 35.2918C147.904 38.4598 148.54 40.7638 149.812 42.2038C151.108 43.6438 153.052 44.3638 155.644 44.3638C157.396 44.3638 158.92 44.1238 160.216 43.6438V37.9198H155.176V34.5358H164.176V45.5518C161.368 47.0158 158.404 47.7478 155.284 47.7478Z" fill="white"/>
<path d="M169.695 22.9438H173.727V26.3638H169.695V22.9438ZM169.803 29.3518H173.583L173.619 47.3158H169.803V29.3518Z" fill="white"/>
<path d="M185.491 47.7838C183.835 47.7838 182.539 47.3398 181.603 46.4518C180.667 45.5638 180.199 44.3038 180.199 42.6718V32.3758H177.283V29.2438H180.199V24.2038H184.087V29.2438H188.479V32.3758H184.087V41.9158C184.087 42.8038 184.243 43.4518 184.555 43.8598C184.867 44.2438 185.419 44.4358 186.211 44.4358C186.595 44.4358 186.991 44.3878 187.399 44.2918C187.831 44.1718 188.191 44.0278 188.479 43.8598V47.2078C187.639 47.5918 186.643 47.7838 185.491 47.7838Z" fill="white"/>
<path d="M217.926 47.3158L212.31 38.2438H207.234V47.3158H203.274V23.3038H213.93C216.45 23.3038 218.37 23.9158 219.69 25.1398C221.034 26.3398 221.706 28.1398 221.706 30.5398C221.706 32.2678 221.226 33.7798 220.266 35.0758C219.33 36.3718 218.058 37.1998 216.45 37.5598L222.858 47.3158H217.926ZM207.234 35.0038H212.814C214.398 35.0038 215.574 34.6558 216.342 33.9598C217.134 33.2638 217.53 32.2078 217.53 30.7918C217.53 29.4238 217.206 28.3918 216.558 27.6958C215.934 26.9998 214.902 26.6518 213.462 26.6518H207.234V35.0038Z" fill="white"/>
<path d="M234.487 28.8118C237.295 28.8118 239.347 29.7238 240.643 31.5478C241.963 33.3478 242.611 35.8798 242.587 39.1438H229.915C230.035 40.9198 230.551 42.2758 231.463 43.2118C232.399 44.1238 233.719 44.5798 235.423 44.5798C236.527 44.5798 237.583 44.4478 238.591 44.1838C239.599 43.8958 240.487 43.5358 241.255 43.1038V46.6318C239.383 47.4478 237.235 47.8558 234.811 47.8558C232.099 47.8558 229.963 47.0398 228.403 45.4078C226.867 43.7518 226.099 41.4118 226.099 38.3878C226.099 35.2918 226.831 32.9278 228.295 31.2958C229.759 29.6398 231.823 28.8118 234.487 28.8118ZM234.379 31.9078C233.107 31.9078 232.111 32.2438 231.391 32.9158C230.671 33.5878 230.203 34.7278 229.987 36.3358H238.735C238.567 34.7998 238.135 33.6838 237.439 32.9878C236.743 32.2678 235.723 31.9078 234.379 31.9078Z" fill="white"/>
<path d="M254.818 28.8118C257.434 28.8118 259.534 29.5798 261.118 31.1158C262.726 32.6518 263.53 35.1478 263.53 38.6038C263.53 41.4358 262.798 43.6798 261.334 45.3358C259.87 46.9918 257.818 47.8198 255.178 47.8198C254.53 47.8198 253.786 47.7358 252.946 47.5678C252.106 47.3998 251.35 47.1478 250.678 46.8118V54.5518H246.934V32.7358C246.934 31.3678 247.702 30.3718 249.238 29.7478C250.798 29.1238 252.658 28.8118 254.818 28.8118ZM254.494 44.6158C256.198 44.6158 257.482 44.0998 258.346 43.0678C259.234 42.0118 259.678 40.4998 259.678 38.5318C259.678 36.4918 259.306 34.9078 258.562 33.7798C257.842 32.6518 256.546 32.0878 254.674 32.0878C253.474 32.0878 252.502 32.2198 251.758 32.4838C251.038 32.7478 250.678 33.1078 250.678 33.5638V43.5718C251.854 44.2678 253.126 44.6158 254.494 44.6158Z" fill="white"/>
<path d="M275.662 47.8558C272.782 47.8558 270.61 47.0398 269.146 45.4078C267.706 43.7758 266.986 41.3998 266.986 38.2798C266.986 31.9678 269.866 28.8118 275.626 28.8118C278.53 28.8118 280.714 29.6278 282.178 31.2598C283.642 32.8678 284.374 35.2078 284.374 38.2798C284.374 41.3518 283.618 43.7158 282.106 45.3718C280.594 47.0278 278.446 47.8558 275.662 47.8558ZM275.626 44.6518C278.938 44.6518 280.594 42.5278 280.594 38.2798C280.594 36.1678 280.198 34.5958 279.406 33.5638C278.614 32.5078 277.354 31.9798 275.626 31.9798C273.874 31.9798 272.614 32.5198 271.846 33.5998C271.102 34.6558 270.73 36.2158 270.73 38.2798C270.73 40.3438 271.114 41.9278 271.882 43.0318C272.674 44.1118 273.922 44.6518 275.626 44.6518Z" fill="white"/>
<path d="M0.397894 28.5945C0.397894 32.4081 2.69999 37.6387 6.29525 38.9199V39.0707C3.62368 40.3218 2.88473 46.6979 6.43735 48.9891V49.1398C2.55789 50.4964 0 53.1041 0 57.6111C0 65.374 6.93472 67.5295 13.0026 67.5295C20.3921 67.5295 25.8915 64.7108 25.8915 56.0736C25.8915 45.4468 11.5389 49.3659 11.5389 43.5927C11.5389 41.5578 12.5621 40.774 14.3384 40.382C20.2357 39.2214 23.9305 34.3526 23.9305 27.9916C23.9305 26.8912 23.7173 25.8511 23.3621 24.8261C24.3142 24.6 25.2378 24.3287 26.1615 23.9971V16.385C23.7173 17.41 21.0884 18.1636 18.4168 18.1636C10.7716 13.4908 0.397894 18.3596 0.397894 28.5945ZM12.8605 53.285C15.2763 53.285 18.7152 53.7372 18.7152 57.0534C18.7152 60.3394 15.9442 61.0177 13.3579 61.0177C10.8995 61.0177 7.20472 60.6108 7.20472 57.2192C7.21893 53.8578 10.3452 53.285 12.8605 53.285ZM12.4058 33.7648C9.27945 33.7648 7.95788 31.8052 7.95788 28.6699C7.95788 21.2386 16.6263 21.314 16.6263 28.5945C16.6263 31.6545 15.4894 33.7648 12.4058 33.7648ZM59.1157 41.2262V48.6122C57.2257 49.7126 54.7815 50.0894 52.6499 50.0894C45.0473 50.0894 44.152 43.7284 44.152 37.1714V23.9519H44.2231V23.8011C43.2283 23.8011 43.1857 23.56 40.8125 23.9519V16.7919H44.2231C44.2231 13.4305 44.2657 12.1191 44.0099 10.5816H52.0673C51.783 12.6618 51.8541 14.7269 51.8541 16.7919H59.1015V23.9519C59.1015 23.9519 56.3588 23.8011 51.8541 23.8011V37.5331C51.8541 39.764 52.3231 42.4773 54.952 42.4773C56.3446 42.4773 57.9788 42.0552 59.1157 41.2262ZM38.3683 5.53199C38.3683 8.35075 36.3078 10.9886 33.5652 10.9886C30.7515 10.9886 28.6626 8.39597 28.6626 5.53199C28.6626 2.6228 30.7231 0 33.5652 0C36.3789 0 38.3683 2.71324 38.3683 5.53199ZM37.4873 16.7618C37.2315 18.9625 37.2599 46.8788 37.4873 49.592H29.6005C29.8278 46.8637 29.8563 18.9927 29.6005 16.7618H37.4873Z" fill="white"/>
</svg>
